<?xml version="1.0" encoding="utf-8"?>
<!-- Generator: Adobe Illustrator 27.1.1, SVG Export Plug-In . SVG Version: 6.00 Build 0)  -->
<svg version="1.1" id="Layer_1" xmlns="http://www.w3.org/2000/svg" xmlns:xlink="http://www.w3.org/1999/xlink" x="0px" y="0px"
	 viewBox="0 0 592.6 140.4" style="enable-background:new 0 0 592.6 140.4;" xml:space="preserve">
<style type="text/css">
	.st0{fill:#500000;}
	.st1{fill:#FFFFFF;}
	.st2{fill:#A6A6A6;}
</style>
<rect x="18.9" y="15.5" class="st0" width="108.3" height="109.2"/>
<polygon class="st1" points="112.8,59 104.7,59 104.3,59 104.1,59.4 98.2,71.5 92.4,59.4 92.2,59 91.7,59 83.9,59 83.2,59 
	83.2,59.7 83.2,63.8 83.2,64.6 83.9,64.6 85.3,64.6 85.3,82 83.8,82 83.1,82 83.1,82.7 83.1,86.8 83.1,87.6 83.8,87.6 92.6,87.6 
	93.3,87.6 93.3,86.8 93.3,82.7 93.3,82 92.6,82 91,82 91,69.6 97.6,83.1 98.2,84.4 98.9,83.1 105.5,69.6 105.5,82 104.1,82 
	103.3,82 103.3,82.7 103.3,86.8 103.3,87.6 104.1,87.6 112.8,87.6 113.5,87.6 113.5,86.8 113.5,82.7 113.5,82 112.8,82 111.3,82 
	111.3,64.6 112.8,64.6 113.5,64.6 113.5,63.8 113.5,59.7 113.5,59 "/>
<path class="st1" d="M62.1,82h-2.2l-7.6-17.6h1.5v-5.5H41.5v5.6h1.7l-7.6,17.6h-3.1v5.6h11V82h-1.6l1.3-2.9h9.1l1.2,2.9h-1.7v5.6h11
	V82H62.1z M49.8,73.4h-4.2l2.1-4.9L49.8,73.4z"/>
<polygon class="st1" points="103.6,37.1 42.3,37.1 41.4,37.1 41.4,38 41.4,54.4 41.4,55.2 42.3,55.2 52.9,55.2 53.7,55.2 53.7,54.4 
	53.7,48.3 66.8,48.3 66.8,91.4 60.7,91.4 59.8,91.4 59.8,92.2 59.8,102.8 59.8,103.7 60.7,103.7 85.1,103.7 86,103.7 86,102.8 
	86,92.2 86,91.4 85.1,91.4 79.1,91.4 79.1,48.3 92,48.3 92,54.3 92,55.1 92.9,55.1 103.6,55.1 104.4,55.1 104.4,54.3 104.4,38 
	104.4,37.1 "/>
<polygon class="st2" points="80.9,96.4 83.5,93.8 83.5,101.1 80.9,98.6 "/>
<polygon class="st2" points="76.5,93.9 74,96.5 74,43.2 76.5,45.8 "/>
<polygon class="st2" points="46.6,42.2 44,39.6 100.6,39.6 97.2,42.2 "/>
<polygon class="st2" points="101.9,52.7 99.4,50.3 99.4,43.7 101.9,41 "/>
<path class="st0" d="M131,122.5c0-1.2,1-2.2,2.2-2.2c1.2,0,2.2,1,2.2,2.2c0,1.2-1,2.2-2.2,2.2S131,123.7,131,122.5L131,122.5z
	 M134.8,122.5c0-0.9-0.7-1.6-1.6-1.6s-1.6,0.7-1.6,1.6c0,0,0,0,0,0c0,0.9,0.7,1.6,1.6,1.6C134.1,124.1,134.8,123.4,134.8,122.5
	C134.8,122.5,134.8,122.5,134.8,122.5z M132.4,121.3h0.9c0.6,0,0.9,0.2,0.9,0.7c0,0.5-0.2,0.6-0.6,0.6l0.7,1.1h-0.5l-0.6-1.1h-0.3v1
	h-0.4L132.4,121.3z M132.8,122.3h0.3c0.3,0,0.5,0,0.5-0.4s-0.3-0.3-0.5-0.3h-0.4L132.8,122.3z"/>
<path d="M180.2,94c0.1,2.7-1,5.2-3.1,6.9c-2.6,1.8-5.7,2.6-8.8,2.5c-3.1,0.2-6.2-0.4-9.1-1.5V98c1.4,0.6,2.9,1.1,4.5,1.4
	c1.6,0.3,3.2,0.5,4.8,0.5c2.1,0.1,4.1-0.4,5.9-1.5c1.3-0.9,2-2.5,2-4.1c0.1-1-0.2-2-0.7-2.9c-0.6-0.9-1.4-1.6-2.3-2.1
	c-1.6-0.8-3.3-1.5-5-2.1c-2.5-0.7-4.8-2.1-6.7-4c-1.4-1.6-2.1-3.7-2-5.9c-0.1-2.4,1-4.7,2.9-6.2c2.2-1.6,4.9-2.4,7.7-2.3
	c3.2,0,6.3,0.6,9.2,1.8l-1.2,3.4c-2.5-1.1-5.3-1.7-8.1-1.7c-1.7-0.1-3.4,0.4-4.8,1.4c-1.1,0.9-1.8,2.3-1.7,3.7c-0.1,1,0.2,2,0.6,2.9
	c0.5,0.9,1.3,1.6,2.2,2.1c1.5,0.8,3,1.5,4.7,2.1c2.6,0.8,5.1,2.1,7.1,3.9C179.6,90,180.3,92,180.2,94z"/>
<path d="M196.5,103.3c-3.2,0.2-6.3-1-8.4-3.3c-2.1-2.7-3.2-6.1-2.9-9.5c-0.3-3.5,0.8-7,2.9-9.7c2.3-2.4,5.5-3.7,8.8-3.4
	c1.2,0,2.4,0.1,3.6,0.4c1,0.2,2,0.5,2.9,0.9l-1.2,3.2c-0.9-0.4-1.8-0.6-2.8-0.8c-0.9-0.2-1.7-0.3-2.6-0.3c-5.1,0-7.6,3.3-7.6,9.8
	c-0.2,2.5,0.5,5,1.9,7.1c1.3,1.7,3.4,2.6,5.5,2.5c2.2,0,4.4-0.5,6.4-1.3v3.4C201,103,198.8,103.4,196.5,103.3z"/>
<path d="M226,102.9V86.6c0.1-1.6-0.4-3.3-1.4-4.6c-1.2-1.1-2.8-1.7-4.4-1.5c-2.2-0.2-4.3,0.6-5.9,2.2c-1.4,2.1-2,4.5-1.8,7v13.1
	h-3.8V67.2h3.8V78c0,1.1,0,2.2-0.2,3.2h0.2c0.8-1.3,1.9-2.3,3.2-2.9c1.5-0.7,3.1-1.1,4.7-1c2.5-0.2,5,0.6,6.9,2.2
	c1.8,1.9,2.7,4.4,2.4,7v16.4H226z"/>
<path d="M259.1,90.3c0.3,3.4-0.8,6.9-2.9,9.6c-2.2,2.3-5.3,3.6-8.6,3.4c-2.1,0-4.1-0.5-5.9-1.6c-1.8-1-3.3-2.6-4.2-4.5
	c-1-2.2-1.5-4.5-1.4-6.9c-0.2-3.4,0.8-6.8,2.9-9.6c2.2-2.3,5.3-3.6,8.5-3.4c3.2-0.2,6.3,1.1,8.5,3.4
	C258.3,83.5,259.3,86.9,259.1,90.3z M240,90.3c-0.2,2.6,0.5,5.2,1.9,7.3c1.4,1.7,3.5,2.7,5.7,2.5c2.2,0.1,4.3-0.8,5.7-2.5
	c1.4-2.2,2.1-4.7,1.9-7.3c0.2-2.6-0.5-5.1-1.9-7.3c-1.4-1.8-3.6-2.7-5.9-2.5c-2.2-0.1-4.3,0.8-5.6,2.5c-1.3,2.2-1.9,4.7-1.6,7.3H240
	z"/>
<path d="M287.5,90.3c0.2,3.5-0.9,6.9-3.1,9.6c-2.2,2.3-5.3,3.6-8.5,3.4c-2.1,0-4.1-0.5-5.9-1.6c-1.8-1.1-3.2-2.6-4.2-4.5
	c-1-2.2-1.5-4.5-1.4-6.9c-0.3-3.4,0.8-6.8,2.9-9.6c2.2-2.3,5.3-3.6,8.5-3.4c3.2-0.1,6.3,1.1,8.4,3.5
	C286.5,83.5,287.7,86.9,287.5,90.3z M268.4,90.3c-0.2,2.6,0.5,5.2,1.9,7.3c2.8,3.1,7.6,3.4,10.8,0.6c0.2-0.2,0.4-0.4,0.6-0.6
	c1.4-2.2,2.1-4.7,1.9-7.3c0.2-2.6-0.5-5.1-1.9-7.3c-1.4-1.8-3.6-2.7-5.9-2.5c-2.2-0.1-4.3,0.8-5.6,2.5
	C268.8,85.2,268.2,87.7,268.4,90.3z"/>
<path d="M298,102.9h-3.8V67.2h3.8L298,102.9z"/>
<path d="M339.9,90.3c0.3,3.4-0.8,6.9-2.9,9.6c-2.2,2.3-5.3,3.6-8.5,3.4c-2.1,0-4.1-0.5-5.9-1.6c-1.9-1-3.4-2.6-4.3-4.5
	c-1-2.2-1.5-4.5-1.4-6.9c-0.2-3.4,0.8-6.8,2.9-9.6c2.2-2.3,5.3-3.6,8.5-3.4c3.2-0.1,6.3,1.1,8.4,3.5C338.9,83.5,340,86.9,339.9,90.3
	z M320.8,90.3c-0.2,2.6,0.5,5.2,1.9,7.3c2.8,3.1,7.6,3.4,10.8,0.6c0.2-0.2,0.4-0.4,0.6-0.6c1.4-2.2,2.1-4.7,1.9-7.3
	c0.2-2.6-0.5-5.1-1.9-7.3c-1.4-1.7-3.5-2.6-5.7-2.5c-2.2-0.1-4.3,0.8-5.6,2.5C321.3,85.2,320.6,87.7,320.8,90.3z"/>
<path d="M357.9,80.7h-6.4v22.1h-3.8V80.7h-4.5V79l4.5-1.4v-1.4c0-6.2,2.7-9.2,8.1-9.2c1.6,0,3.2,0.3,4.7,0.8l-1,2.9
	c-1.2-0.4-2.5-0.7-3.8-0.7c-1.2-0.1-2.4,0.4-3.2,1.4c-0.8,1.4-1.1,3-1,4.6v1.6h6.4L357.9,80.7z"/>
<path d="M401.9,85.8c0.3,4.7-1.3,9.2-4.5,12.7c-3.5,3.1-8.2,4.7-12.9,4.4h-9.3V69.4h10.3c8.2-0.8,15.6,5.1,16.5,13.4
	C402,83.8,402,84.8,401.9,85.8z M397.8,86c0.3-3.6-0.9-7.2-3.3-9.9c-2.7-2.4-6.2-3.6-9.8-3.3h-5.5v26.7h4.7
	c3.8,0.3,7.6-0.9,10.5-3.4C396.9,93.3,398.1,89.6,397.8,86z"/>
<path d="M419.4,103.3c-3.3,0.2-6.5-1-8.8-3.4c-2.3-2.6-3.4-6-3.2-9.4c-0.2-3.5,0.8-6.9,2.9-9.6c2-2.4,4.9-3.7,8-3.6
	c2.8-0.1,5.6,1,7.5,3.1c1.9,2.3,2.9,5.2,2.8,8.2V91h-17.1c-0.1,2.4,0.7,4.8,2.2,6.7c1.5,1.6,3.7,2.4,5.9,2.3c2.8,0,5.5-0.6,8-1.7
	v3.4c-1.2,0.5-2.5,1-3.8,1.3C422.3,103.2,420.8,103.3,419.4,103.3z M418.4,80.5c-1.8-0.1-3.6,0.6-4.8,2c-1.3,1.5-2,3.5-2.1,5.4h13.1
	c0.1-2-0.4-3.9-1.6-5.5C421.8,81.1,420.1,80.4,418.4,80.5z"/>
<path d="M452.3,102.9V86.6c0.1-1.6-0.4-3.3-1.4-4.6c-1.2-1.1-2.8-1.7-4.4-1.5c-2.2-0.2-4.3,0.6-5.9,2.1c-1.4,2.1-2.1,4.5-1.8,7v13.2
	H435V77.8h3.1l0.6,3.4h0.2c0.8-1.3,1.9-2.3,3.3-2.9c1.5-0.7,3.1-1,4.7-1c2.5-0.2,4.9,0.6,6.8,2.2c1.7,1.9,2.5,4.4,2.3,7v16.4H452.3z
	"/>
<path d="M471.9,100.2c0.7,0.1,1.3,0.1,2,0c0.5-0.1,1-0.2,1.5-0.3v2.9c-0.6,0.2-1.2,0.4-1.8,0.5c-0.7,0.1-1.4,0.2-2.1,0.2
	c-4.9,0-7.3-2.5-7.3-7.6V81h-3.6v-1.8l3.6-1.6l1.6-5.4h2.2v5.9h7.3V81h-7.3v14.6c-0.1,1.3,0.3,2.5,1.1,3.5
	C469.8,99.9,470.9,100.3,471.9,100.2z"/>
<path d="M480.1,70.9c-0.1-0.7,0.2-1.4,0.6-1.9c0.9-0.8,2.3-0.8,3.2,0c0.5,0.5,0.8,1.2,0.8,1.9c0.1,0.7-0.2,1.4-0.7,1.9
	c-0.4,0.4-1,0.6-1.6,0.6c-0.6,0-1.2-0.2-1.6-0.6C480.3,72.3,480.1,71.6,480.1,70.9z M484.2,102.8h-3.8v-25h3.8V102.8z"/>
<path d="M508.5,96c0.1,2.1-0.9,4.2-2.6,5.4c-2.2,1.4-4.7,2-7.3,1.9c-2.7,0.1-5.4-0.4-7.8-1.6v-3.5c1.2,0.6,2.5,1.1,3.9,1.4
	c1.3,0.3,2.7,0.5,4,0.5c1.6,0.1,3.2-0.2,4.6-0.9c1-0.6,1.7-1.7,1.6-2.9c0-1-0.5-1.9-1.3-2.5c-1.5-1.1-3.2-1.9-5-2.5
	c-1.7-0.6-3.4-1.4-5-2.3c-0.9-0.6-1.6-1.3-2.2-2.2c-0.5-0.9-0.7-1.9-0.7-2.9c-0.1-1.9,0.9-3.8,2.5-4.8c2-1.3,4.4-1.9,6.8-1.8
	c2.7,0,5.4,0.6,7.9,1.6l-1.3,3.1c-2.2-1-4.5-1.5-6.9-1.6c-1.4-0.1-2.8,0.2-4.1,0.8c-0.9,0.5-1.4,1.4-1.4,2.3c0,0.6,0.2,1.2,0.5,1.7
	c0.4,0.6,1,1,1.6,1.3c1.4,0.7,2.9,1.3,4.4,1.8c2.2,0.6,4.3,1.8,6,3.3C507.9,93,508.5,94.5,508.5,96z"/>
<path d="M522.8,100.2c0.7,0.1,1.3,0.1,2,0c0.5-0.1,1-0.2,1.5-0.3v2.9c-0.6,0.2-1.2,0.4-1.8,0.5c-0.7,0.1-1.4,0.2-2.2,0.2
	c-4.8,0-7.3-2.5-7.3-7.6V81h-3.6v-1.8l3.6-1.6l1.6-5.4h2.2v5.9h7.3V81h-7.3v14.6c-0.1,1.3,0.3,2.5,1.1,3.5
	C520.6,99.9,521.7,100.3,522.8,100.2z"/>
<path d="M542.6,77.3c1,0,2,0.1,2.9,0.3l-0.5,3.5c-0.9-0.2-1.8-0.3-2.7-0.4c-2,0-3.9,0.9-5.2,2.5c-1.5,1.7-2.2,3.9-2.2,6.2v13.5h-3.8
	V77.8h3.1l0.4,4.6h0.2c0.8-1.5,2-2.8,3.3-3.8C539.5,77.8,541,77.3,542.6,77.3z"/>
<path d="M546.2,77.8h4.1l5.5,14.3c0.9,2.3,1.7,4.7,2.3,7.1h0.2c0.2-0.8,0.6-2.1,1.3-4c0.6-1.9,2.7-7.7,6.2-17.4h4.1L559,106.4
	c-0.8,2.2-2,4.2-3.8,5.9c-1.5,1.2-3.3,1.8-5.2,1.8c-1.2,0-2.3-0.1-3.4-0.4v-2.9c1,0.2,1.9,0.3,2.9,0.3c2.6,0,4.9-1.8,5.6-4.4
	l1.4-3.5L546.2,77.8z"/>
<path d="M164.3,53.6h-2.8V39.2h-5v-2.3h12.6v2.3h-4.9V53.6z"/>
<path d="M182.4,53.6h-9.5V36.9h9.5v2.3h-6.7v4.5h6.3V46h-6.3v5.3h6.7V53.6z"/>
<path d="M199.5,53.6h-3.1l-4.2-6.9l-4.2,6.9H185l5.5-8.8l-5.2-8.1h2.9l3.9,6.3l3.9-6.3h2.9l-5.2,8.1L199.5,53.6z"/>
<path d="M213.3,53.6l-1.7-4.7h-6.4l-1.6,4.7h-2.9l6.3-16.8h2.9l6.3,16.8H213.3z M210.9,46.6l-1.6-4.6c0-0.3-0.3-0.8-0.5-1.4
	c-0.2-0.7-0.3-1.1-0.4-1.4c-0.2,1-0.5,2.1-0.9,3.1l-1.4,4.4H210.9z"/>
<path d="M229.3,49.1c0.1,1.4-0.6,2.7-1.6,3.5c-1.3,0.9-2.8,1.4-4.4,1.3c-1.6,0.1-3.2-0.2-4.7-0.9v-2.5c0.8,0.4,1.6,0.7,2.4,0.8
	c0.8,0.2,1.6,0.3,2.4,0.3c0.8,0.1,1.7-0.2,2.4-0.6c0.5-0.4,0.8-1,0.8-1.7c0-0.6-0.3-1.2-0.7-1.6c-0.9-0.7-1.9-1.2-2.9-1.6
	c-1.2-0.4-2.3-1.1-3.2-2.1c-0.7-0.8-1-1.9-0.9-2.9c-0.1-1.3,0.5-2.5,1.5-3.3c1.2-0.9,2.6-1.3,4-1.2c1.6,0,3.3,0.4,4.8,1l-0.9,2.3
	c-1.2-0.6-2.6-0.9-4-0.9c-0.7-0.1-1.4,0.1-2,0.6c-0.5,0.4-0.7,0.9-0.7,1.5c0,0.4,0.1,0.8,0.3,1.1c0.2,0.3,0.5,0.6,0.9,0.8
	c0.7,0.4,1.5,0.8,2.3,1.1c1,0.4,1.9,0.8,2.7,1.4c0.5,0.4,1,0.9,1.3,1.5C229.1,47.7,229.3,48.4,229.3,49.1z"/>
<path d="M251.3,53.6l-1.7-4.7h-6.4l-1.7,4.7h-2.9l6.2-16.8h2.9l6.2,16.8H251.3z M248.9,46.6l-1.6-4.6c0-0.3-0.3-0.8-0.5-1.4
	c-0.2-0.7-0.4-1.1-0.4-1.4c-0.2,1-0.5,2.1-0.9,3.1l-1.5,4.4L248.9,46.6z"/>
<path d="M256.5,49.2c0-0.9,0.2-1.9,0.7-2.6c0.7-0.9,1.6-1.7,2.6-2.2c-0.6-0.6-1.1-1.4-1.5-2.1c-0.3-0.6-0.4-1.2-0.4-1.8
	c0-1.1,0.4-2.1,1.2-2.8c1-0.7,2.1-1.1,3.3-1c1.1-0.1,2.3,0.3,3.2,1c0.8,0.7,1.2,1.6,1.1,2.6c0,0.9-0.3,1.7-0.8,2.4
	c-0.7,0.9-1.6,1.6-2.6,2.1l4,3.8c0.7-1.1,1.3-2.3,1.6-3.6h2.8c-0.4,1.9-1.3,3.8-2.5,5.3l3.4,3.3h-3.5l-1.7-1.7
	c-0.8,0.6-1.6,1.1-2.6,1.4c-0.9,0.3-1.9,0.5-2.9,0.5c-1.5,0.1-2.9-0.4-4.1-1.3C256.9,51.7,256.4,50.5,256.5,49.2z M262.4,51.5
	c1.3,0,2.5-0.4,3.5-1.1l-4.4-4.3c-0.6,0.4-1.2,0.9-1.7,1.4c-0.3,0.5-0.4,1-0.4,1.6c0,0.7,0.3,1.4,0.8,1.8
	C260.7,51.4,261.5,51.6,262.4,51.5L262.4,51.5z M260.7,40.5c0,0.5,0.1,0.9,0.4,1.3c0.3,0.5,0.7,1,1.1,1.4c0.7-0.3,1.3-0.8,1.8-1.4
	c0.3-0.4,0.5-0.9,0.5-1.4c0-0.4-0.2-0.9-0.5-1.2c-0.4-0.3-0.8-0.5-1.3-0.4c-0.5,0-1,0.1-1.4,0.4C260.8,39.5,260.6,40,260.7,40.5
	L260.7,40.5z"/>
<path d="M283.4,53.6l-4.9-14l0,0c0,2.1,0.2,4,0.2,5.9v8.1h-2.5V36.9h3.9l4.6,13.3l0,0l4.8-13.3h3.9v16.7h-2.6v-8.3
	c0-0.8,0-1.9,0-3.3c0-1.3,0-2.1,0-2.4l0,0l-5,13.9H283.4z"/>
<path d="M319.3,36.9v10.8c0,1.1-0.2,2.3-0.8,3.3c-0.5,0.9-1.3,1.7-2.3,2.1c-1.1,0.5-2.4,0.8-3.6,0.8c-1.8,0.1-3.5-0.5-4.8-1.7
	c-1.2-1.2-1.8-2.8-1.7-4.5V36.9h2.9v10.6c-0.1,1.1,0.3,2.1,1,2.9c0.8,0.7,1.9,1.1,2.9,1c2.6,0,3.9-1.3,3.9-4.1V36.8L319.3,36.9z"/>
<path d="M338.7,53.6h-3.4L327,40.3l0,0V41c0,1.4,0.2,2.7,0.2,3.9v8.8h-2.5V36.9h3.3l8.2,13.2l0,0c0-0.2,0-0.8,0-1.9s0-2,0-2.6v-8.8
	h2.5L338.7,53.6z"/>
<path d="M344.3,53.6V36.9h2.7v16.7H344.3z"/>
<path d="M362.1,36.9h2.9l-5.9,16.7h-2.9l-5.9-16.7h2.9l3.5,10.4c0.2,0.6,0.4,1.3,0.6,1.9c0.2,0.8,0.4,1.4,0.4,1.8
	c0.1-0.7,0.3-1.4,0.5-2c0.2-0.8,0.4-1.3,0.5-1.7L362.1,36.9z"/>
<path d="M377.8,53.6h-9.5V36.9h9.5v2.3h-6.7v4.5h6.3V46h-6.3v5.3h6.7V53.6z"/>
<path d="M385.3,46.9v6.7h-2.7V36.9h4.7c1.7-0.1,3.4,0.3,4.8,1.2c1.1,0.9,1.6,2.3,1.6,3.7c0,2-1.3,3.9-3.3,4.5l4.7,7.4h-3.1l-4-6.7
	H385.3z M385.3,44.7h1.9c1,0.1,1.9-0.2,2.8-0.7c0.6-0.5,0.9-1.3,0.9-2.1c0.1-0.8-0.3-1.6-0.9-2c-0.9-0.5-1.8-0.7-2.8-0.6h-1.8V44.7z
	"/>
<path d="M408.5,49.1c0.1,1.4-0.5,2.7-1.6,3.5c-1.3,0.9-2.9,1.4-4.5,1.3c-1.6,0.1-3.2-0.2-4.6-0.9v-2.5c0.8,0.4,1.6,0.7,2.4,0.8
	c0.8,0.2,1.6,0.3,2.4,0.3c0.8,0.1,1.7-0.2,2.4-0.6c0.5-0.4,0.8-1,0.8-1.7c0-0.6-0.3-1.2-0.7-1.6c-0.9-0.7-1.9-1.2-2.9-1.6
	c-1.2-0.4-2.4-1.1-3.3-2.1c-0.6-0.8-1-1.9-0.9-2.9c-0.1-1.3,0.5-2.5,1.5-3.3c1.1-0.9,2.6-1.3,4-1.2c1.7,0,3.3,0.4,4.8,1l-0.9,2.3
	c-1.3-0.6-2.6-0.9-4-0.9c-0.7-0.1-1.4,0.1-2,0.6c-0.4,0.4-0.7,0.9-0.7,1.5c0,0.4,0.1,0.8,0.3,1.1c0.2,0.3,0.6,0.6,0.9,0.8
	c0.7,0.4,1.5,0.8,2.3,1.1c1,0.4,1.9,0.8,2.7,1.4c0.5,0.4,1,0.9,1.3,1.5C408.4,47.7,408.5,48.4,408.5,49.1z"/>
<path d="M412.8,53.6V36.9h2.7v16.7H412.8z"/>
<path d="M426.9,53.6h-2.7V39.2h-4.9v-2.3H432v2.3H427L426.9,53.6z"/>
<path d="M440.3,44.6l4-7.6h2.9l-5.6,10.2v6.5h-2.8v-6.5l-5.6-10.3h2.9L440.3,44.6z"/>
</svg>
